<svg xmlns="http://www.w3.org/2000/svg" width="600" height="600" viewBox="0 0 600 600">
  <defs>
    <radialGradient id="bg" cx="50%" cy="50%" r="50%">
      <stop offset="0%" stop-color="#1a1a1a"/>
      <stop offset="100%" stop-color="#0d0d0d"/>
    </radialGradient>
    <linearGradient id="bunTop" x1="0" y1="0" x2="0" y2="1">
      <stop offset="0%" stop-color="#E8B84B"/>
      <stop offset="100%" stop-color="#D4943A"/>
    </linearGradient>
    <linearGradient id="patty" x1="0" y1="0" x2="0" y2="1">
      <stop offset="0%" stop-color="#5C3A21"/>
      <stop offset="50%" stop-color="#4A2E1A"/>
      <stop offset="100%" stop-color="#3D2413"/>
    </linearGradient>
    <linearGradient id="cheese" x1="0" y1="0" x2="1" y2="1">
      <stop offset="0%" stop-color="#FFB347"/>
      <stop offset="100%" stop-color="#FF8C00"/>
    </linearGradient>
    <linearGradient id="lettuce" x1="0" y1="0" x2="1" y2="1">
      <stop offset="0%" stop-color="#6DB33F"/>
      <stop offset="100%" stop-color="#4A8C2A"/>
    </linearGradient>
    <linearGradient id="tomato" x1="0" y1="0" x2="1" y2="1">
      <stop offset="0%" stop-color="#E63946"/>
      <stop offset="100%" stop-color="#B71C1C"/>
    </linearGradient>
    <linearGradient id="bunBottom" x1="0" y1="1" x2="0" y2="0">
      <stop offset="0%" stop-color="#E8B84B"/>
      <stop offset="100%" stop-color="#C8842A"/>
    </linearGradient>
    <filter id="shadow">
      <feDropShadow dx="0" dy="4" stdDeviation="8" flood-color="#000" flood-opacity="0.5"/>
    </filter>
    <filter id="innerGlow">
      <feGaussianBlur in="SourceAlpha" stdDeviation="3" result="blur"/>
      <feOffset dx="0" dy="2" result="offsetBlur"/>
      <feComposite in="SourceGraphic" in2="offsetBlur" operator="over"/>
    </filter>
  </defs>
  <rect width="600" height="600" fill="url(#bg)"/>

  <!-- Subtle plate/glow behind burger -->
  <ellipse cx="300" cy="380" rx="180" ry="20" fill="rgba(255,255,255,0.03)"/>

  <g filter="url(#shadow)">
    <!-- Bottom bun -->
    <ellipse cx="300" cy="370" rx="140" ry="40" fill="url(#bunBottom)"/>
    <ellipse cx="300" cy="365" rx="130" ry="30" fill="#D9A040"/>

    <!-- Patty -->
    <ellipse cx="300" cy="325" rx="145" ry="35" fill="url(#patty)"/>
    <ellipse cx="300" cy="320" rx="140" ry="30" fill="#5C3A21"/>
    <!-- Patty texture dots -->
    <circle cx="260" cy="318" r="2" fill="#3D2413" opacity="0.4"/>
    <circle cx="310" cy="325" r="1.5" fill="#3D2413" opacity="0.3"/>
    <circle cx="340" cy="315" r="2" fill="#3D2413" opacity="0.35"/>
    <circle cx="280" cy="330" r="1.5" fill="#3D2413" opacity="0.3"/>
    <circle cx="350" cy="322" r="1" fill="#3D2413" opacity="0.4"/>
    <!-- Patty highlight -->
    <ellipse cx="290" cy="312" rx="60" ry="8" fill="rgba(255,255,255,0.05)"/>

    <!-- Cheese slice -->
    <path d="M160 310 Q200 290 300 285 Q400 290 440 310 Q430 300 420 305 Q380 295 300 292 Q220 295 180 305 Q170 300 160 310Z" fill="url(#cheese)" opacity="0.9"/>
    <!-- Cheese drip -->
    <path d="M200 310 Q205 325 210 310" fill="#FFA000" opacity="0.7"/>
    <path d="M380 308 Q385 320 390 308" fill="#FFA000" opacity="0.6"/>
    <path d="M290 305 Q293 315 296 305" fill="#FFA000" opacity="0.5"/>

    <!-- Lettuce -->
    <path d="M170 285 Q200 270 250 265 Q280 260 300 258 Q320 260 350 265 Q400 270 430 285 Q410 275 380 272 Q340 265 300 263 Q260 265 220 272 Q190 275 170 285Z" fill="url(#lettuce)"/>
    <path d="M195 280 Q220 268 260 264 Q280 261 300 260 Q320 261 340 264 Q380 268 405 280" fill="none" stroke="#5DA832" stroke-width="1" opacity="0.5"/>
    <path d="M210 276 Q240 266 270 263" fill="none" stroke="#4A8C2A" stroke-width="0.8" opacity="0.4"/>
    <path d="M330 263 Q360 266 390 276" fill="none" stroke="#4A8C2A" stroke-width="0.8" opacity="0.4"/>

    <!-- Tomato slices -->
    <ellipse cx="230" cy="275" rx="22" ry="8" fill="url(#tomato)" opacity="0.85"/>
    <ellipse cx="230" cy="274" rx="18" ry="5" fill="#E63946" opacity="0.6"/>
    <ellipse cx="370" cy="275" rx="20" ry="7" fill="url(#tomato)" opacity="0.85"/>
    <ellipse cx="370" cy="274" rx="16" ry="4.5" fill="#E63946" opacity="0.6"/>
    <ellipse cx="300" cy="272" rx="25" ry="8" fill="url(#tomato)" opacity="0.85"/>
    <ellipse cx="300" cy="271" rx="20" ry="5" fill="#E63946" opacity="0.6"/>

    <!-- Top bun -->
    <ellipse cx="300" cy="260" rx="150" ry="65" fill="url(#bunTop)"/>
    <ellipse cx="300" cy="255" rx="145" ry="60" fill="#E8B84B"/>
    <!-- Bun dome -->
    <ellipse cx="300" cy="235" rx="120" ry="40" fill="#EDC16A" opacity="0.6"/>
    <!-- Sesame seeds -->
    <ellipse cx="250" cy="225" rx="5" ry="2.5" fill="#F5E6C8" transform="rotate(-20 250 225)" opacity="0.7"/>
    <ellipse cx="310" cy="218" rx="4" ry="2" fill="#F5E6C8" transform="rotate(15 310 218)" opacity="0.6"/>
    <ellipse cx="270" cy="215" rx="4.5" ry="2.5" fill="#F5E6C8" transform="rotate(-35 270 215)" opacity="0.7"/>
    <ellipse cx="340" cy="222" rx="4" ry="2" fill="#F5E6C8" transform="rotate(25 340 222)" opacity="0.6"/>
    <ellipse cx="290" cy="210" rx="5" ry="2.5" fill="#F5E6C8" transform="rotate(-10 290 210)" opacity="0.7"/>
    <ellipse cx="330" cy="230" rx="4.5" ry="2" fill="#F5E6C8" transform="rotate(40 330 230)" opacity="0.5"/>
    <ellipse cx="260" cy="238" rx="3.5" ry="2" fill="#F5E6C8" transform="rotate(-45 260 238)" opacity="0.5"/>
    <ellipse cx="350" cy="240" rx="4" ry="2" fill="#F5E6C8" transform="rotate(10 350 240)" opacity="0.5"/>
    <ellipse cx="230" cy="240" rx="4" ry="2" fill="#F5E6C8" transform="rotate(-15 230 240)" opacity="0.5"/>

    <!-- Bun top highlight -->
    <ellipse cx="280" cy="225" rx="50" ry="15" fill="rgba(255,255,255,0.08)"/>

    <!-- Steam/vapor lines -->
    <path d="M270 195 Q275 180 270 165" fill="none" stroke="rgba(255,255,255,0.08)" stroke-width="2"/>
    <path d="M300 190 Q305 175 300 160" fill="none" stroke="rgba(255,255,255,0.06)" stroke-width="2"/>
    <path d="M330 195 Q335 180 330 165" fill="none" stroke="rgba(255,255,255,0.07)" stroke-width="2"/>
  </g>
</svg>
